<svg xmlns="http://www.w3.org/2000/svg" version="1.1" xmlns:xlink="http://www.w3.org/1999/xlink" xmlns:svgjs="http://svgjs.com/svgjs" width="602" height="591"><svg width="602" height="591" viewBox="0 0 602 591" fill="none" xmlns="http://www.w3.org/2000/svg">
<rect x="50" y="42" width="501" height="492" rx="246" fill="#960202"></rect>
<path d="M306 0L295.2 0C132.166 0 0 132.165 0 295.2C0 458.235 132.166 590.4 295.2 590.4H306C469.034 590.4 601.2 458.235 601.2 295.2C601.2 132.165 469.034 0 306 0Z" fill="#080E3F"></path>
<path d="M164 219L79 259.37V363L164 315.108V219Z" fill="#F49F1C"></path>
<mask id="SvgjsMask1001" style="mask-type:luminance" maskUnits="userSpaceOnUse" x="205" y="82" width="90" height="285">
<path d="M205.742 82H294.74V366.643H205.742V82Z" fill="white"></path>
</mask>
<g mask="url(#mask0_0_1)">
<path d="M291.998 81.8646L206.92 121.926V292.038L291.998 364.985V81.8646Z" fill="#F49F1C"></path>
</g>
<path d="M375.114 328.966C383.729 324.147 392.363 319.412 400.997 314.66L418 305.325V130L335 169.867V352C341.805 347.99 348.968 343.828 356.565 339.48C362.692 335.959 368.875 332.437 375.114 328.966Z" fill="#F49F1C"></path>
<mask id="SvgjsMask1000" style="mask-type:luminance" maskUnits="userSpaceOnUse" x="38" y="258" width="527" height="189">
<path d="M38 258.461H564.575V446.091H38V258.461Z" fill="white"></path>
</mask>
<g mask="url(#mask1_0_1)">
<path d="M561.466 273.524L465.359 258.529C463.196 258.19 461.574 260.272 462.752 261.914L480.444 287.115L473.742 290.602L469.299 292.92L415.549 321.76C406.761 326.499 397.992 331.255 389.224 336.062C382.947 339.515 376.67 342.984 370.451 346.505C355.521 354.882 340.669 363.396 325.971 372.163C318.651 376.512 311.331 380.947 304.049 385.432C302.137 386.617 300.225 387.852 298.294 389.054L293.292 384.755L215.399 317.935L202.96 307.273L189.402 314.838L172.444 324.333L39.0043 398.887L55.0349 422.565L195.718 354.087H195.737L249.777 406.859L277.416 433.837L287.439 443.637L289.738 445.871L309.245 437.425C317.222 433.973 325.14 430.401 332.962 426.729C340.804 423.073 348.587 419.333 356.352 415.558C371.88 408.01 387.235 400.224 402.493 392.32C417.77 384.433 432.893 376.309 447.996 368.135L501.496 338.956L504.547 337.247L512.543 332.762L529.482 356.829C530.621 358.454 533.402 358.166 534.078 356.338L563.455 276.418C563.938 275.115 562.991 273.744 561.466 273.524Z" fill="white"></path>
</g>
</svg><style>@media (prefers-color-scheme: light) { :root { filter: none; } }
</style></svg>