<svg width="74" height="52" viewBox="0 0 74 52" fill="none" xmlns="http://www.w3.org/2000/svg">
<mask id="mask0_0_1" style="mask-type:luminance" maskUnits="userSpaceOnUse" x="10" y="17" width="7" height="21">
<path d="M10.4109 17.2978H16.3733V37.36H10.4109V17.2978Z" fill="white"/>
</mask>
<g mask="url(#mask0_0_1)">
<path fill-rule="evenodd" clip-rule="evenodd" d="M10.4109 37.175H16.3192V20.1075C16.3192 18.5658 14.9894 17.3055 13.3644 17.3055C11.7394 17.3055 10.4109 18.5658 10.4109 20.1075V37.175Z" fill="white"/>
</g>
<mask id="mask1_0_1" style="mask-type:luminance" maskUnits="userSpaceOnUse" x="57" y="17" width="7" height="21">
<path d="M57.6267 17.2978H63.711V37.36H57.6267V17.2978Z" fill="white"/>
</mask>
<g mask="url(#mask1_0_1)">
<path fill-rule="evenodd" clip-rule="evenodd" d="M57.6795 37.175H63.5891V20.1075C63.5891 18.5658 62.2593 17.3055 60.6343 17.3055C59.0093 17.3055 57.6795 18.5658 57.6795 20.1075V37.175Z" fill="white"/>
</g>
<path fill-rule="evenodd" clip-rule="evenodd" d="M18 37H24V14.7714C24 13.2473 22.6499 12 21 12C19.3501 12 18 13.2473 18 14.7714V37Z" fill="white"/>
<path fill-rule="evenodd" clip-rule="evenodd" d="M26 37H32V27.6595C32 26.1962 30.6499 25 29 25C27.3501 25 26 26.1962 26 27.6595V37Z" fill="white"/>
<path fill-rule="evenodd" clip-rule="evenodd" d="M34 37H40V19.8204C40 18.2686 38.6509 17 37.0007 17C35.3504 17 34 18.2686 34 19.8204V37Z" fill="white"/>
<mask id="mask2_0_1" style="mask-type:luminance" maskUnits="userSpaceOnUse" x="41" y="0" width="7" height="38">
<path d="M41.68 0.800659H47.92V37.36H41.68V0.800659Z" fill="white"/>
</mask>
<g mask="url(#mask2_0_1)">
<path fill-rule="evenodd" clip-rule="evenodd" d="M41.9238 37.175H47.832V3.60392C47.832 2.06226 46.5022 0.800659 44.8772 0.800659C43.2535 0.800659 41.9238 2.06226 41.9238 3.60392V37.175Z" fill="#F49F1C"/>
</g>
<path fill-rule="evenodd" clip-rule="evenodd" d="M50 37H56V10.742C56 9.23404 54.6496 8 52.9993 8C51.3491 8 50 9.23404 50 10.742V37Z" fill="white"/>
<mask id="mask3_0_1" style="mask-type:luminance" maskUnits="userSpaceOnUse" x="26" y="21" width="7" height="3">
<path d="M26.3684 21.5733H32.0884V23.7342H26.3684V21.5733Z" fill="white"/>
</mask>
<g mask="url(#mask3_0_1)">
<path d="M29.2027 22.4816C30.3768 22.4816 31.3734 22.1682 32.037 21.6504C32.037 21.784 32.037 21.9215 32.037 22.068C32.037 23.0109 30.8182 23.7227 29.2027 23.7227C27.5872 23.7227 26.3684 23.0109 26.3684 22.068C26.3684 21.9305 26.3684 21.7892 26.3684 21.6504C27.032 22.1682 28.0287 22.4816 29.2027 22.4816Z" fill="white"/>
</g>
<mask id="mask4_0_1" style="mask-type:luminance" maskUnits="userSpaceOnUse" x="26" y="15" width="7" height="5">
<path d="M26.3684 15.9822H32.0884V19.6H26.3684V15.9822Z" fill="white"/>
</mask>
<g mask="url(#mask4_0_1)">
<path d="M32.037 17.9311C32.037 18.8741 30.8182 19.5859 29.2027 19.5859C27.5872 19.5859 26.3684 18.8741 26.3684 17.9311C26.3684 16.9882 27.5872 16.2777 29.2027 16.2777C30.8182 16.2777 32.037 16.9882 32.037 17.9311Z" fill="white"/>
</g>
<mask id="mask5_0_1" style="mask-type:luminance" maskUnits="userSpaceOnUse" x="26" y="19" width="7" height="3">
<path d="M26.3684 19.2711H32.0884V21.9022H26.3684V19.2711Z" fill="white"/>
</mask>
<g mask="url(#mask5_0_1)">
<path d="M29.2027 20.4132C30.3768 20.4132 31.3734 20.0998 32.037 19.582C32.037 19.7156 32.037 19.8531 32.037 19.9996C32.037 20.9425 30.8182 21.6543 29.2027 21.6543C27.5872 21.6543 26.3684 20.9425 26.3684 19.9996C26.3684 19.8621 26.3684 19.7208 26.3684 19.582C27.032 20.0998 28.0287 20.4132 29.2027 20.4132Z" fill="white"/>
</g>
<mask id="mask6_0_1" style="mask-type:luminance" maskUnits="userSpaceOnUse" x="33" y="14" width="8" height="3">
<path d="M33.7771 14.0089H40.2771V16.527H33.7771V14.0089Z" fill="white"/>
</mask>
<g mask="url(#mask6_0_1)">
<path d="M37.0433 15.0534C38.3609 15.0534 39.4781 14.7014 40.2216 14.1207C40.2216 14.271 40.2216 14.4251 40.2216 14.5896C40.2216 15.6482 38.8552 16.446 37.0433 16.446C35.2301 16.446 33.8638 15.6482 33.8638 14.5896C33.8638 14.4354 33.8638 14.2774 33.8638 14.1207C34.6085 14.7014 35.7257 15.0534 37.0433 15.0534Z" fill="white"/>
</g>
<mask id="mask7_0_1" style="mask-type:luminance" maskUnits="userSpaceOnUse" x="33" y="11" width="8" height="4">
<path d="M33.7771 11.7067H40.2771V14.3378H33.7771V11.7067Z" fill="white"/>
</mask>
<g mask="url(#mask7_0_1)">
<path d="M37.0433 12.7344C38.3609 12.7344 39.4781 12.3811 40.2216 11.8005C40.2216 11.9508 40.2216 12.1062 40.2216 12.2694C40.2216 13.328 38.8552 14.1258 37.0433 14.1258C35.2301 14.1258 33.8638 13.328 33.8638 12.2694C33.8638 12.1152 33.8638 11.9572 33.8638 11.8005C34.6085 12.3811 35.7257 12.7344 37.0433 12.7344Z" fill="white"/>
</g>
<mask id="mask8_0_1" style="mask-type:luminance" maskUnits="userSpaceOnUse" x="33" y="9" width="8" height="4">
<path d="M33.7771 9.40444H40.2771V12.0356H33.7771V9.40444Z" fill="white"/>
</mask>
<g mask="url(#mask8_0_1)">
<path d="M37.0433 10.4142C38.3609 10.4142 39.4781 10.0622 40.2216 9.48024C40.2216 9.63055 40.2216 9.786 40.2216 9.95045C40.2216 11.0078 38.8552 11.8056 37.0433 11.8056C35.2301 11.8056 33.8638 11.0078 33.8638 9.95045C33.8638 9.795 33.8638 9.63698 33.8638 9.48024C34.6085 10.0622 35.7257 10.4142 37.0433 10.4142Z" fill="white"/>
</g>
<mask id="mask9_0_1" style="mask-type:luminance" maskUnits="userSpaceOnUse" x="33" y="3" width="8" height="5">
<path d="M33.7771 3.45361H40.2771V7.43111H33.7771V3.45361Z" fill="white"/>
</mask>
<g mask="url(#mask9_0_1)">
<path d="M33.8638 5.31004C33.8638 4.25143 35.2301 3.45361 37.0433 3.45361C38.8552 3.45361 40.2216 4.25143 40.2216 5.31004C40.2216 6.36736 38.8552 7.16518 37.0433 7.16518C35.2301 7.16518 33.8638 6.36736 33.8638 5.31004Z" fill="white"/>
</g>
<mask id="mask10_0_1" style="mask-type:luminance" maskUnits="userSpaceOnUse" x="33" y="7" width="8" height="3">
<path d="M33.7771 7.10223H40.2771V9.73334H33.7771V7.10223Z" fill="white"/>
</mask>
<g mask="url(#mask10_0_1)">
<path d="M37.0433 8.09403C38.3609 8.09403 39.4781 7.74202 40.2216 7.16004C40.2216 7.31035 40.2216 7.46581 40.2216 7.63025C40.2216 8.68758 38.8552 9.48539 37.0433 9.48539C35.2301 9.48539 33.8638 8.68758 33.8638 7.63025C33.8638 7.4748 33.8638 7.31678 33.8638 7.16004C34.6085 7.74202 35.7257 8.09403 37.0433 8.09403Z" fill="white"/>
</g>
<path d="M6.9742 42.1459H5.5117C5.45753 41.79 5.29638 41.5113 5.02961 41.3083C4.76555 41.1027 4.43513 40.9999 4.03836 40.9999C3.50753 40.9999 3.08097 41.1849 2.76003 41.5549C2.4418 41.9224 2.28336 42.4427 2.28336 43.1172C2.28336 43.8135 2.44315 44.3402 2.76545 44.6999C3.09045 45.0597 3.51024 45.2395 4.02753 45.2395C4.41347 45.2395 4.73982 45.1445 5.00795 44.9518C5.27472 44.7603 5.44263 44.4918 5.5117 44.1449L6.9742 44.1501C6.92274 44.5483 6.77378 44.9235 6.52461 45.2755C6.27815 45.6249 5.94232 45.9102 5.51711 46.1286C5.09461 46.3444 4.59086 46.4523 4.00586 46.4523C3.39513 46.4523 2.8494 46.3225 2.37003 46.0618C1.8893 45.7984 1.51013 45.4181 1.23253 44.9209C0.957633 44.425 0.820862 43.8238 0.820862 43.1172C0.820862 42.4119 0.958987 41.8106 1.23795 41.3134C1.51961 40.8175 1.90013 40.4385 2.38086 40.1777C2.8643 39.9144 3.40597 39.782 4.00586 39.782C4.53263 39.782 5.00795 39.8745 5.43045 40.0595C5.85565 40.2445 6.20503 40.5143 6.47586 40.8663C6.7467 41.2196 6.9119 41.6462 6.9742 42.1459Z" fill="white"/>
<path d="M10.2681 39.8745L11.9202 44.8079H11.9852L13.6427 39.8745H15.246L12.8898 46.3649H11.021L8.65934 39.8745H10.2681Z" fill="white"/>
<path d="M17.086 46.3649V39.8745H18.5323V45.2344H21.4627V46.3649H17.086Z" fill="white"/>
<path d="M32.674 42.1459H31.2115C31.1573 41.79 30.9962 41.5113 30.7294 41.3083C30.4654 41.1027 30.1349 40.9999 29.7382 40.9999C29.2073 40.9999 28.7808 41.1849 28.4598 41.5549C28.1416 41.9224 27.9832 42.4427 27.9832 43.1172C27.9832 43.8135 28.143 44.3402 28.4653 44.6999C28.7903 45.0597 29.2101 45.2395 29.7273 45.2395C30.1133 45.2395 30.4396 45.1445 30.7078 44.9518C30.9745 44.7603 31.1424 44.4918 31.2115 44.1449L32.674 44.1501C32.6226 44.5483 32.4736 44.9235 32.2244 45.2755C31.978 45.6249 31.6421 45.9102 31.2169 46.1286C30.7944 46.3444 30.2907 46.4523 29.7057 46.4523C29.0949 46.4523 28.5492 46.3225 28.0698 46.0618C27.5891 45.7984 27.2099 45.4181 26.9323 44.9209C26.6574 44.425 26.5207 43.8238 26.5207 43.1172C26.5207 42.4119 26.6588 41.8106 26.9378 41.3134C27.2194 40.8175 27.5999 40.4385 28.0807 40.1777C28.5641 39.9144 29.1058 39.782 29.7057 39.782C30.2324 39.782 30.7078 39.8745 31.1303 40.0595C31.5555 40.2445 31.9048 40.5143 32.1757 40.8663C32.4465 41.2196 32.6117 41.6462 32.674 42.1459Z" fill="white"/>
<path d="M35.9137 46.3649H34.3591L36.7208 39.8745H38.5896L40.9458 46.3649H39.3966L38.8875 44.8849H36.4175L35.9137 46.3649ZM36.7858 43.8109H38.5246L37.6796 41.3545H37.6308L36.7858 43.8109Z" fill="white"/>
<path d="M42.7858 46.3649V39.8745H45.4833C46.0033 39.8745 46.4448 39.9696 46.8104 40.1572C47.1747 40.3422 47.4523 40.6017 47.6446 40.9331C47.8396 41.262 47.9371 41.6423 47.9371 42.074C47.9371 42.5056 47.8369 42.8859 47.6392 43.2148C47.4442 43.5411 47.1598 43.7955 46.7887 43.9805C46.4204 44.1655 45.9722 44.258 45.4454 44.258H44.2321V46.3649H42.7858ZM44.2321 43.1583H45.2125C45.6269 43.1583 45.9356 43.0594 46.1387 42.8602C46.3446 42.6585 46.4475 42.3964 46.4475 42.074C46.4475 41.7489 46.3446 41.4881 46.1387 41.2929C45.9356 41.095 45.6255 40.9948 45.2071 40.9948H44.2321V43.1583Z" fill="white"/>
<path d="M51.3428 39.8745V46.3649H49.8966V39.8745H51.3428Z" fill="white"/>
<path d="M53.2925 41.0051V39.8745H58.9096V41.0051H56.8133V46.3649H55.3833V41.0051H53.2925Z" fill="white"/>
<path d="M62.0379 46.3649H60.4833L62.8449 39.8745H64.7137L67.0699 46.3649H65.5208L65.0116 44.8849H62.5416L62.0379 46.3649ZM62.9099 43.8109H64.6487L63.8037 41.3545H63.7549L62.9099 43.8109Z" fill="white"/>
<path d="M68.91 46.3649V39.8745H70.3562V45.2344H73.2867V46.3649H68.91Z" fill="white"/>
<path d="M1.63651 51.5093V49.2841H2.56276C2.82953 49.2841 3.03536 49.351 3.18026 49.4846C3.32786 49.6156 3.40234 49.7903 3.40234 50.0087C3.40234 50.1629 3.36578 50.2952 3.29401 50.4044C3.22088 50.5111 3.11796 50.592 2.98526 50.646L3.48359 51.5093H2.93651L2.49234 50.7179H2.12942V51.5093H1.63651ZM2.12942 50.3428H2.47067C2.75234 50.3428 2.89317 50.2323 2.89317 50.0087C2.89317 49.7801 2.74963 49.6644 2.46526 49.6644H2.12942V50.3428Z" fill="#F49F1C"/>
<path d="M5.17689 51.5093V49.2841H6.75855V49.6696H5.6698V50.1989H6.6773V50.5894H5.6698V51.1187H6.76397V51.5093H5.17689Z" fill="#F49F1C"/>
<path d="M9.8493 49.9214C9.83847 49.8366 9.79784 49.7698 9.73013 49.721C9.66107 49.6696 9.56763 49.6439 9.44847 49.6439C9.32524 49.6439 9.2318 49.6683 9.1668 49.7158C9.1018 49.7646 9.0693 49.8237 9.0693 49.8957C9.0693 49.9753 9.10451 50.0344 9.17763 50.0755C9.25347 50.1167 9.34149 50.1475 9.44305 50.168L9.6543 50.2194C9.78701 50.2477 9.90617 50.2888 10.0118 50.3428C10.1201 50.398 10.2041 50.47 10.2664 50.5586C10.3273 50.6447 10.3585 50.7487 10.3585 50.8721C10.3544 51.0776 10.2732 51.2408 10.1147 51.3603C9.95492 51.481 9.73149 51.5401 9.44305 51.5401C9.15732 51.5401 8.92982 51.4785 8.76055 51.3551C8.58992 51.2318 8.50326 51.0506 8.50055 50.8104H8.97722C8.98805 50.9235 9.03409 51.0082 9.11805 51.0622C9.20065 51.1175 9.30763 51.1444 9.43763 51.1444C9.56357 51.1444 9.66513 51.1213 9.74097 51.0725C9.8168 51.0211 9.85472 50.9543 9.85472 50.8721C9.85472 50.7976 9.81951 50.7385 9.7518 50.6973C9.68274 50.6562 9.58388 50.6228 9.45388 50.5946L9.1993 50.5329C9.00024 50.4892 8.84315 50.4186 8.72805 50.3222C8.61565 50.2233 8.56013 50.091 8.56013 49.9265C8.56013 49.7903 8.59805 49.6721 8.67388 49.5719C8.74972 49.4692 8.85399 49.3908 8.98805 49.3355C9.12482 49.2816 9.27784 49.2533 9.44847 49.2533C9.62451 49.2533 9.77888 49.2829 9.90888 49.3407C10.0389 49.3959 10.1391 49.473 10.2122 49.5719C10.284 49.6721 10.3219 49.7878 10.326 49.9214H9.8493Z" fill="#F49F1C"/>
<path d="M12.1122 51.5093V49.2841H13.6938V49.6696H12.6051V50.1989H13.6126V50.5894H12.6051V51.1187H13.6993V51.5093H12.1122Z" fill="#F49F1C"/>
<path d="M15.9125 51.5093H15.3817L16.1942 49.2841H16.8333L17.6404 51.5093H17.1096L16.9362 51.0005H16.0912L15.9125 51.5093ZM16.2158 50.6357H16.8117L16.5246 49.7929H16.5029L16.2158 50.6357Z" fill="#F49F1C"/>
<path d="M19.3476 51.5093V49.2841H20.2738C20.5406 49.2841 20.7464 49.351 20.8913 49.4846C21.0389 49.6156 21.1134 49.7903 21.1134 50.0087C21.1134 50.1629 21.0769 50.2952 21.0051 50.4044C20.932 50.5111 20.829 50.592 20.6963 50.646L21.1947 51.5093H20.6476L20.2034 50.7179H19.8405V51.5093H19.3476ZM19.8405 50.3428H20.1818C20.4634 50.3428 20.6043 50.2323 20.6043 50.0087C20.6043 49.7801 20.4607 49.6644 20.1763 49.6644H19.8405V50.3428Z" fill="#F49F1C"/>
<path d="M24.9571 50.0601H24.4534C24.4344 49.9406 24.3802 49.8469 24.2909 49.7775C24.2001 49.7055 24.0864 49.6696 23.9496 49.6696C23.7682 49.6696 23.6219 49.7338 23.5109 49.8597C23.4025 49.9869 23.3484 50.1655 23.3484 50.3942C23.3484 50.6344 23.4025 50.8155 23.5109 50.9389C23.6219 51.0622 23.7668 51.1239 23.9442 51.1239C24.0769 51.1239 24.1893 51.0918 24.28 51.0262C24.3735 50.962 24.4317 50.8695 24.4534 50.7487H24.9571C24.9382 50.8862 24.8867 51.0147 24.8 51.1342C24.7161 51.2549 24.6023 51.3526 24.4588 51.4271C24.3139 51.5029 24.1406 51.5401 23.9388 51.5401C23.7289 51.5401 23.5407 51.4964 23.3755 51.4065C23.213 51.314 23.083 51.1843 22.9855 51.016C22.8907 50.8451 22.8446 50.6382 22.8446 50.3942C22.8446 50.1513 22.8907 49.9458 22.9855 49.7775C23.083 49.6066 23.2143 49.4769 23.3809 49.3869C23.5461 49.2983 23.733 49.2533 23.9388 49.2533C24.1189 49.2533 24.2814 49.2867 24.4263 49.351C24.5739 49.4126 24.6931 49.5038 24.7838 49.6233C24.8772 49.7441 24.9355 49.8893 24.9571 50.0601Z" fill="#F49F1C"/>
<path d="M26.7376 51.5093V49.2841H27.2305V50.1989H28.238V49.2841H28.7364V51.5093H28.238V50.5894H27.2305V51.5093H26.7376Z" fill="#F49F1C"/>
<path d="M33.1402 51.5093H32.6093L33.4218 49.2841H34.061L34.8681 51.5093H34.3373L34.1639 51.0005H33.3189L33.1402 51.5093ZM33.4435 50.6357H34.0393L33.7523 49.7929H33.7306L33.4435 50.6357Z" fill="#F49F1C"/>
<path d="M38.5361 49.2841V51.5093H38.1082L37.0844 50.1064H37.0682V51.5093H36.5753V49.2841H37.0086L38.0215 50.6819H38.0432V49.2841H38.5361Z" fill="#F49F1C"/>
<path d="M41.1987 51.5093H40.3699V49.2841H41.2095C41.4438 49.2841 41.6456 49.3291 41.8162 49.4178C41.9895 49.5038 42.1209 49.631 42.2116 49.798C42.301 49.9625 42.347 50.1616 42.347 50.3941C42.347 50.628 42.2996 50.8284 42.2062 50.9954C42.1155 51.1598 41.9841 51.287 41.8108 51.3757C41.6401 51.4656 41.437 51.5093 41.1987 51.5093ZM40.8629 51.1033H41.1824C41.4018 51.1033 41.5684 51.0468 41.6808 50.9337C41.7959 50.8207 41.8541 50.6408 41.8541 50.3941C41.8541 50.1475 41.7959 49.9676 41.6808 49.8546C41.5684 49.7415 41.4018 49.685 41.1824 49.685H40.8629V51.1033Z" fill="#F49F1C"/>
<path d="M46.7118 51.5093H46.181L46.9935 49.2841H47.6326L48.4397 51.5093H47.9089L47.7356 51.0005H46.8906L46.7118 51.5093ZM47.0151 50.6357H47.611L47.3239 49.7929H47.3022L47.0151 50.6357Z" fill="#F49F1C"/>
<path d="M52.1077 49.2841V51.5093H51.6798L50.6561 50.1064H50.6398V51.5093H50.1469V49.2841H50.5802L51.5931 50.6819H51.6148V49.2841H52.1077Z" fill="#F49F1C"/>
<path d="M54.3424 51.5093H53.8116L54.6241 49.2841H55.2633L56.0703 51.5093H55.5395L55.3662 51.0005H54.5212L54.3424 51.5093ZM54.6458 50.6357H55.2416L54.9545 49.7929H54.9328L54.6458 50.6357Z" fill="#F49F1C"/>
<path d="M57.7775 51.5093V49.2841H58.2704V51.1187H59.2779V51.5093H57.7775Z" fill="#F49F1C"/>
<path d="M60.8907 49.2841H61.4486L61.9848 50.24H62.0065L62.5428 49.2841H63.0953L62.2394 50.723V51.5093H61.7465V50.723L60.8907 49.2841Z" fill="#F49F1C"/>
<path d="M66.0647 49.9214C66.0539 49.8366 66.0133 49.7698 65.9456 49.721C65.8765 49.6696 65.7831 49.6439 65.6639 49.6439C65.5407 49.6439 65.4472 49.6683 65.3822 49.7158C65.3172 49.7646 65.2847 49.8237 65.2847 49.8957C65.2847 49.9753 65.32 50.0344 65.3931 50.0755C65.4689 50.1167 65.5569 50.1475 65.6585 50.168L65.8697 50.2194C66.0025 50.2477 66.1216 50.2888 66.2272 50.3428C66.3356 50.398 66.4195 50.47 66.4818 50.5586C66.5428 50.6447 66.5739 50.7487 66.5739 50.8721C66.5699 51.0776 66.4886 51.2408 66.3302 51.3603C66.1704 51.481 65.9469 51.5401 65.6585 51.5401C65.3728 51.5401 65.1453 51.4785 64.976 51.3551C64.8054 51.2318 64.7187 51.0506 64.716 50.8104H65.1927C65.2035 50.9235 65.2495 51.0082 65.3335 51.0622C65.4161 51.1175 65.5231 51.1444 65.6531 51.1444C65.779 51.1444 65.8806 51.1213 65.9564 51.0725C66.0322 51.0211 66.0702 50.9543 66.0702 50.8721C66.0702 50.7976 66.035 50.7385 65.9672 50.6973C65.8982 50.6562 65.7993 50.6228 65.6693 50.5946L65.4147 50.5329C65.2157 50.4892 65.0586 50.4186 64.9435 50.3222C64.8311 50.2233 64.7756 50.091 64.7756 49.9265C64.7756 49.7903 64.8135 49.6721 64.8893 49.5719C64.9652 49.4692 65.0694 49.3908 65.2035 49.3355C65.3403 49.2816 65.4933 49.2533 65.6639 49.2533C65.84 49.2533 65.9943 49.2829 66.1243 49.3407C66.2543 49.3959 66.3545 49.473 66.4277 49.5719C66.4994 49.6721 66.5374 49.7878 66.5414 49.9214H66.0647Z" fill="#F49F1C"/>
<path d="M68.8205 49.2841V51.5093H68.3276V49.2841H68.8205Z" fill="#F49F1C"/>
<path d="M71.929 49.9214C71.9182 49.8366 71.8775 49.7698 71.8098 49.721C71.7408 49.6696 71.6473 49.6439 71.5282 49.6439C71.4049 49.6439 71.3115 49.6683 71.2465 49.7158C71.1815 49.7646 71.149 49.8237 71.149 49.8957C71.149 49.9753 71.1842 50.0344 71.2573 50.0755C71.3332 50.1167 71.4212 50.1475 71.5227 50.168L71.734 50.2194C71.8667 50.2477 71.9859 50.2888 72.0915 50.3428C72.1998 50.398 72.2838 50.47 72.3461 50.5586C72.407 50.6447 72.4382 50.7487 72.4382 50.8721C72.4341 51.0776 72.3529 51.2408 72.1944 51.3603C72.0346 51.481 71.8112 51.5401 71.5227 51.5401C71.237 51.5401 71.0095 51.4785 70.8402 51.3551C70.6696 51.2318 70.583 51.0506 70.5802 50.8104H71.0569C71.0677 50.9235 71.1138 51.0082 71.1977 51.0622C71.2804 51.1175 71.3873 51.1444 71.5173 51.1444C71.6433 51.1444 71.7448 51.1213 71.8207 51.0725C71.8965 51.0211 71.9344 50.9543 71.9344 50.8721C71.9344 50.7976 71.8992 50.7385 71.8315 50.6973C71.7624 50.6562 71.6636 50.6228 71.5336 50.5946L71.279 50.5329C71.0799 50.4892 70.9229 50.4186 70.8077 50.3222C70.6954 50.2233 70.6398 50.091 70.6398 49.9265C70.6398 49.7903 70.6777 49.6721 70.7536 49.5719C70.8294 49.4692 70.9337 49.3908 71.0677 49.3355C71.2045 49.2816 71.3575 49.2533 71.5282 49.2533C71.7042 49.2533 71.8586 49.2829 71.9886 49.3407C72.1186 49.3959 72.2188 49.473 72.2919 49.5719C72.3637 49.6721 72.4016 49.7878 72.4057 49.9214H71.929Z" fill="#F49F1C"/>
</svg>
