<svg width="279" height="206" viewBox="0 0 279 206" fill="none" xmlns="http://www.w3.org/2000/svg">
<mask id="mask0_0_1" style="mask-type:luminance" maskUnits="userSpaceOnUse" x="36" y="66" width="24" height="83">
<path d="M36.8849 66.8802H59.8171V148.214H36.8849V66.8802Z" fill="white"/>
</mask>
<g mask="url(#mask0_0_1)">
<path fill-rule="evenodd" clip-rule="evenodd" d="M36.8849 147.464H59.6088V78.2708C59.6088 72.0208 54.4942 66.9115 48.2442 66.9115C41.9942 66.9115 36.8849 72.0208 36.8849 78.2708V147.464Z" fill="white"/>
</g>
<mask id="mask1_0_1" style="mask-type:luminance" maskUnits="userSpaceOnUse" x="218" y="66" width="24" height="83">
<path d="M218.484 66.8802H241.885V148.214H218.484V66.8802Z" fill="white"/>
</mask>
<g mask="url(#mask1_0_1)">
<path fill-rule="evenodd" clip-rule="evenodd" d="M218.687 147.464H241.416V78.2708C241.416 72.0208 236.302 66.9115 230.052 66.9115C223.802 66.9115 218.687 72.0208 218.687 78.2708V147.464Z" fill="white"/>
</g>
<path fill-rule="evenodd" clip-rule="evenodd" d="M67.1817 147.464H89.9109V56.3125C89.9109 50.0625 84.7963 44.9479 78.5463 44.9479C72.2963 44.9479 67.1817 50.0625 67.1817 56.3125V147.464Z" fill="white"/>
<path fill-rule="evenodd" clip-rule="evenodd" d="M97.4838 147.464H120.213V107.568C120.213 101.318 115.098 96.2083 108.848 96.2083C102.598 96.2083 97.4838 101.318 97.4838 107.568V147.464Z" fill="white"/>
<path fill-rule="evenodd" clip-rule="evenodd" d="M127.786 147.464H150.51V78.2708C150.51 72.0208 145.4 66.9115 139.15 66.9115C132.9 66.9115 127.786 72.0208 127.786 78.2708V147.464Z" fill="white"/>
<mask id="mask2_0_1" style="mask-type:luminance" maskUnits="userSpaceOnUse" x="157" y="0" width="25" height="149">
<path d="M157.15 0H181.15V148.214H157.15V0Z" fill="white"/>
</mask>
<g mask="url(#mask2_0_1)">
<path fill-rule="evenodd" clip-rule="evenodd" d="M158.088 147.464H180.812V11.3646C180.812 5.11458 175.697 0 169.447 0C163.203 0 158.088 5.11458 158.088 11.3646V147.464Z" fill="#F49F1C"/>
</g>
<path fill-rule="evenodd" clip-rule="evenodd" d="M188.39 147.464H211.114V38.6354C211.114 32.3854 205.999 27.2708 199.749 27.2708C193.499 27.2708 188.39 32.3854 188.39 38.6354V147.464Z" fill="white"/>
<mask id="mask3_0_1" style="mask-type:luminance" maskUnits="userSpaceOnUse" x="98" y="84" width="23" height="9">
<path d="M98.2599 84.2135H120.26V92.9739H98.2599V84.2135Z" fill="white"/>
</mask>
<g mask="url(#mask3_0_1)">
<path d="M109.161 87.8958C113.677 87.8958 117.51 86.625 120.062 84.526C120.062 85.0677 120.062 85.625 120.062 86.2187C120.062 90.0417 115.374 92.9271 109.161 92.9271C102.947 92.9271 98.2599 90.0417 98.2599 86.2187C98.2599 85.6614 98.2599 85.0885 98.2599 84.526C100.812 86.625 104.645 87.8958 109.161 87.8958Z" fill="white"/>
</g>
<mask id="mask4_0_1" style="mask-type:luminance" maskUnits="userSpaceOnUse" x="98" y="61" width="23" height="16">
<path d="M98.2599 61.5469H120.26V76.2135H98.2599V61.5469Z" fill="white"/>
</mask>
<g mask="url(#mask4_0_1)">
<path d="M120.062 69.4479C120.062 73.2708 115.374 76.1562 109.161 76.1562C102.947 76.1562 98.2599 73.2708 98.2599 69.4479C98.2599 65.625 102.947 62.7448 109.161 62.7448C115.374 62.7448 120.062 65.625 120.062 69.4479Z" fill="white"/>
</g>
<mask id="mask5_0_1" style="mask-type:luminance" maskUnits="userSpaceOnUse" x="98" y="74" width="23" height="12">
<path d="M98.2599 74.8802H120.26V85.5469H98.2599V74.8802Z" fill="white"/>
</mask>
<g mask="url(#mask5_0_1)">
<path d="M109.161 79.5104C113.677 79.5104 117.51 78.2396 120.062 76.1406C120.062 76.6823 120.062 77.2396 120.062 77.8333C120.062 81.6562 115.374 84.5417 109.161 84.5417C102.947 84.5417 98.2599 81.6562 98.2599 77.8333C98.2599 77.276 98.2599 76.7031 98.2599 76.1406C100.812 78.2396 104.645 79.5104 109.161 79.5104Z" fill="white"/>
</g>
<mask id="mask6_0_1" style="mask-type:luminance" maskUnits="userSpaceOnUse" x="126" y="53" width="26" height="11">
<path d="M126.755 53.5469H151.755V63.7552H126.755V53.5469Z" fill="white"/>
</mask>
<g mask="url(#mask6_0_1)">
<path d="M139.317 57.7813C144.385 57.7813 148.682 56.3542 151.541 54C151.541 54.6094 151.541 55.2344 151.541 55.901C151.541 60.1927 146.286 63.4271 139.317 63.4271C132.343 63.4271 127.088 60.1927 127.088 55.901C127.088 55.276 127.088 54.6354 127.088 54C129.953 56.3542 134.249 57.7813 139.317 57.7813Z" fill="white"/>
</g>
<mask id="mask7_0_1" style="mask-type:luminance" maskUnits="userSpaceOnUse" x="126" y="44" width="26" height="11">
<path d="M126.755 44.2135H151.755V54.8802H126.755V44.2135Z" fill="white"/>
</mask>
<g mask="url(#mask7_0_1)">
<path d="M139.317 48.3802C144.385 48.3802 148.682 46.9479 151.541 44.5938C151.541 45.2031 151.541 45.8333 151.541 46.4948C151.541 50.7865 146.286 54.0208 139.317 54.0208C132.343 54.0208 127.088 50.7865 127.088 46.4948C127.088 45.8698 127.088 45.2292 127.088 44.5938C129.953 46.9479 134.249 48.3802 139.317 48.3802Z" fill="white"/>
</g>
<mask id="mask8_0_1" style="mask-type:luminance" maskUnits="userSpaceOnUse" x="126" y="34" width="26" height="12">
<path d="M126.755 34.8802H151.755V45.5469H126.755V34.8802Z" fill="white"/>
</mask>
<g mask="url(#mask8_0_1)">
<path d="M139.317 38.9739C144.385 38.9739 148.682 37.5469 151.541 35.1875C151.541 35.7969 151.541 36.4271 151.541 37.0937C151.541 41.3802 146.286 44.6146 139.317 44.6146C132.343 44.6146 127.088 41.3802 127.088 37.0937C127.088 36.4635 127.088 35.8229 127.088 35.1875C129.953 37.5469 134.249 38.9739 139.317 38.9739Z" fill="white"/>
</g>
<mask id="mask9_0_1" style="mask-type:luminance" maskUnits="userSpaceOnUse" x="126" y="10" width="26" height="17">
<path d="M126.755 10.7552H151.755V26.8802H126.755V10.7552Z" fill="white"/>
</mask>
<g mask="url(#mask9_0_1)">
<path d="M127.088 18.2812C127.088 13.9896 132.343 10.7552 139.317 10.7552C146.286 10.7552 151.541 13.9896 151.541 18.2812C151.541 22.5677 146.286 25.8021 139.317 25.8021C132.343 25.8021 127.088 22.5677 127.088 18.2812Z" fill="white"/>
</g>
<mask id="mask10_0_1" style="mask-type:luminance" maskUnits="userSpaceOnUse" x="126" y="25" width="26" height="12">
<path d="M126.755 25.5469H151.755V36.2135H126.755V25.5469Z" fill="white"/>
</mask>
<g mask="url(#mask10_0_1)">
<path d="M139.317 29.5677C144.385 29.5677 148.682 28.1406 151.541 25.7812C151.541 26.3906 151.541 27.0208 151.541 27.6875C151.541 31.974 146.286 35.2083 139.317 35.2083C132.343 35.2083 127.088 31.974 127.088 27.6875C127.088 27.0573 127.088 26.4167 127.088 25.7812C129.953 28.1406 134.249 29.5677 139.317 29.5677Z" fill="white"/>
</g>
<path d="M23.6667 167.616H18.0417C17.8333 166.173 17.2135 165.043 16.1875 164.22C15.1719 163.387 13.901 162.97 12.375 162.97C10.3333 162.97 8.69271 163.72 7.45833 165.22C6.23437 166.71 5.625 168.819 5.625 171.553C5.625 174.376 6.23958 176.512 7.47917 177.97C8.72917 179.428 10.3437 180.158 12.3333 180.158C13.8177 180.158 15.0729 179.772 16.1042 178.991C17.1302 178.215 17.776 177.126 18.0417 175.72L23.6667 175.741C23.4688 177.355 22.8958 178.876 21.9375 180.303C20.9896 181.72 19.6979 182.876 18.0625 183.762C16.4375 184.637 14.5 185.074 12.25 185.074C9.90104 185.074 7.80208 184.548 5.95833 183.491C4.10937 182.423 2.65104 180.882 1.58333 178.866C0.526041 176.855 0 174.418 0 171.553C0 168.694 0.531251 166.257 1.60417 164.241C2.6875 162.23 4.15104 160.694 6 159.637C7.85937 158.569 9.94271 158.033 12.25 158.033C14.276 158.033 16.1042 158.408 17.7292 159.158C19.3646 159.908 20.7083 161.001 21.75 162.428C22.7917 163.861 23.4271 165.59 23.6667 167.616Z" fill="white"/>
<path d="M36.3354 158.408L42.6896 178.408H42.9396L49.3146 158.408H55.4813L46.4188 184.72H39.2313L30.1479 158.408H36.3354Z" fill="white"/>
<path d="M62.5583 184.72V158.408H68.1208V180.137H79.3916V184.72H62.5583Z" fill="white"/>
<path d="M122.512 167.616H116.887C116.679 166.173 116.059 165.043 115.033 164.22C114.017 163.387 112.746 162.97 111.22 162.97C109.179 162.97 107.538 163.72 106.304 165.22C105.08 166.71 104.47 168.819 104.47 171.553C104.47 174.376 105.085 176.512 106.325 177.97C107.575 179.428 109.189 180.158 111.179 180.158C112.663 180.158 113.918 179.772 114.95 178.991C115.976 178.215 116.621 177.126 116.887 175.72L122.512 175.741C122.314 177.355 121.741 178.876 120.783 180.303C119.835 181.72 118.543 182.876 116.908 183.762C115.283 184.637 113.345 185.074 111.095 185.074C108.746 185.074 106.647 184.548 104.804 183.491C102.955 182.423 101.496 180.882 100.429 178.866C99.3714 176.855 98.8454 174.418 98.8454 171.553C98.8454 168.694 99.3766 166.257 100.45 164.241C101.533 162.23 102.996 160.694 104.845 159.637C106.705 158.569 108.788 158.033 111.095 158.033C113.121 158.033 114.95 158.408 116.575 159.158C118.21 159.908 119.554 161.001 120.595 162.428C121.637 163.861 122.272 165.59 122.512 167.616Z" fill="white"/>
<path d="M134.972 184.72H128.993L138.077 158.408H145.264L154.327 184.72H148.368L146.41 178.72H136.91L134.972 184.72ZM138.327 174.366H145.014L141.764 164.408H141.577L138.327 174.366Z" fill="white"/>
<path d="M161.404 184.72V158.408H171.779C173.779 158.408 175.477 158.793 176.883 159.553C178.284 160.303 179.352 161.355 180.091 162.699C180.841 164.033 181.216 165.574 181.216 167.324C181.216 169.074 180.831 170.616 180.07 171.949C179.32 173.272 178.227 174.303 176.8 175.053C175.383 175.803 173.659 176.178 171.633 176.178H166.966V184.72H161.404ZM166.966 171.72H170.737C172.331 171.72 173.518 171.319 174.3 170.512C175.091 169.694 175.487 168.632 175.487 167.324C175.487 166.007 175.091 164.949 174.3 164.158C173.518 163.355 172.326 162.949 170.716 162.949H166.966V171.72Z" fill="white"/>
<path d="M194.315 158.408V184.72H188.753V158.408H194.315Z" fill="white"/>
<path d="M201.814 162.991V158.408H223.418V162.991H215.356V184.72H209.856V162.991H201.814Z" fill="white"/>
<path d="M235.45 184.72H229.471L238.554 158.408H245.742L254.804 184.72H248.846L246.887 178.72H237.387L235.45 184.72ZM238.804 174.366H245.492L242.242 164.408H242.054L238.804 174.366Z" fill="white"/>
<path d="M261.881 184.72V158.408H267.444V180.137H278.714V184.72H261.881Z" fill="white"/>
<path d="M3.13702 205.576V196.555H6.69952C7.72557 196.555 8.51723 196.826 9.07452 197.367C9.64223 197.898 9.92869 198.607 9.92869 199.492C9.92869 200.117 9.78807 200.654 9.51202 201.096C9.23077 201.529 8.83494 201.857 8.32452 202.076L10.2412 205.576H8.13702L6.42869 202.367H5.03286V205.576H3.13702ZM5.03286 200.846H6.34536C7.42869 200.846 7.97036 200.398 7.97036 199.492C7.97036 198.565 7.41827 198.096 6.32452 198.096H5.03286V200.846Z" fill="#F49F1C"/>
<path d="M16.7539 205.576V196.555H22.8372V198.117H18.6497V200.263H22.5247V201.846H18.6497V203.992H22.858V205.576H16.7539Z" fill="#F49F1C"/>
<path d="M34.7247 199.138C34.683 198.794 34.5268 198.523 34.2663 198.326C34.0007 198.117 33.6413 198.013 33.183 198.013C32.709 198.013 32.3497 198.112 32.0997 198.305C31.8497 198.503 31.7247 198.742 31.7247 199.034C31.7247 199.357 31.8601 199.596 32.1413 199.763C32.433 199.93 32.7715 200.055 33.1622 200.138L33.9747 200.346C34.4851 200.461 34.9434 200.628 35.3497 200.846C35.7663 201.07 36.0893 201.362 36.3288 201.721C36.5632 202.07 36.683 202.492 36.683 202.992C36.6674 203.826 36.3549 204.487 35.7455 204.971C35.1309 205.461 34.2715 205.701 33.1622 205.701C32.0632 205.701 31.1882 205.451 30.5372 204.951C29.8809 204.451 29.5476 203.716 29.5372 202.742H31.3705C31.4122 203.201 31.5893 203.544 31.9122 203.763C32.2299 203.987 32.6413 204.096 33.1413 204.096C33.6257 204.096 34.0163 204.003 34.308 203.805C34.5997 203.596 34.7455 203.326 34.7455 202.992C34.7455 202.69 34.6101 202.451 34.3497 202.284C34.084 202.117 33.7038 201.982 33.2038 201.867L32.2247 201.617C31.459 201.44 30.8549 201.154 30.4122 200.763C29.9799 200.362 29.7663 199.826 29.7663 199.159C29.7663 198.607 29.9122 198.128 30.2038 197.721C30.4955 197.305 30.8965 196.987 31.4122 196.763C31.9382 196.544 32.5268 196.43 33.183 196.43C33.8601 196.43 34.4538 196.549 34.9538 196.784C35.4538 197.008 35.8393 197.32 36.1205 197.721C36.3965 198.128 36.5424 198.596 36.558 199.138H34.7247Z" fill="#F49F1C"/>
<path d="M43.4281 205.576V196.555H49.5114V198.117H45.3239V200.263H49.1989V201.846H45.3239V203.992H49.5322V205.576H43.4281Z" fill="#F49F1C"/>
<path d="M58.0447 205.576H56.003L59.128 196.555H61.5864L64.6905 205.576H62.6489L61.9822 203.513H58.7322L58.0447 205.576ZM59.2114 202.034H61.503L60.3989 198.617H60.3155L59.2114 202.034Z" fill="#F49F1C"/>
<path d="M71.2566 205.576V196.555H74.8191C75.8451 196.555 76.6368 196.826 77.1941 197.367C77.7618 197.898 78.0483 198.607 78.0483 199.492C78.0483 200.117 77.9076 200.654 77.6316 201.096C77.3503 201.529 76.9545 201.857 76.4441 202.076L78.3608 205.576H76.2566L74.5483 202.367H73.1524V205.576H71.2566ZM73.1524 200.846H74.4649C75.5483 200.846 76.0899 200.398 76.0899 199.492C76.0899 198.565 75.5378 198.096 74.4441 198.096H73.1524V200.846Z" fill="#F49F1C"/>
<path d="M92.8318 199.701H90.8943C90.8214 199.216 90.613 198.836 90.2693 198.555C89.9203 198.263 89.4828 198.117 88.9568 198.117C88.2589 198.117 87.6964 198.378 87.2693 198.888C86.8526 199.404 86.6443 200.128 86.6443 201.055C86.6443 202.029 86.8526 202.763 87.2693 203.263C87.6964 203.763 88.2537 204.013 88.936 204.013C89.4464 204.013 89.8787 203.883 90.2276 203.617C90.587 203.357 90.811 202.982 90.8943 202.492H92.8318C92.7589 203.049 92.561 203.57 92.2276 204.055C91.9047 204.544 91.4672 204.94 90.9151 205.242C90.3578 205.549 89.6912 205.701 88.9151 205.701C88.1078 205.701 87.3839 205.523 86.7485 205.159C86.1235 204.784 85.6235 204.258 85.2485 203.576C84.8839 202.883 84.7068 202.044 84.7068 201.055C84.7068 200.07 84.8839 199.237 85.2485 198.555C85.6235 197.862 86.1287 197.336 86.7693 196.971C87.4047 196.612 88.1235 196.43 88.9151 196.43C89.6078 196.43 90.2328 196.565 90.7901 196.826C91.3578 197.076 91.8162 197.445 92.1651 197.93C92.5245 198.419 92.7485 199.008 92.8318 199.701Z" fill="#F49F1C"/>
<path d="M99.6798 205.576V196.555H101.576V200.263H105.451V196.555H107.367V205.576H105.451V201.846H101.576V205.576H99.6798Z" fill="#F49F1C"/>
<path d="M124.305 205.576H122.263L125.388 196.555H127.847L130.951 205.576H128.909L128.243 203.513H124.993L124.305 205.576ZM125.472 202.034H127.763L126.659 198.617H126.576L125.472 202.034Z" fill="#F49F1C"/>
<path d="M145.059 196.555V205.576H143.413L139.475 199.888H139.413V205.576H137.517V196.555H139.184L143.079 202.221H143.163V196.555H145.059Z" fill="#F49F1C"/>
<path d="M155.299 205.576H152.112V196.555H155.341C156.242 196.555 157.018 196.737 157.674 197.096C158.341 197.445 158.846 197.961 159.195 198.638C159.539 199.305 159.716 200.112 159.716 201.055C159.716 202.003 159.534 202.815 159.174 203.492C158.825 204.159 158.32 204.674 157.653 205.034C156.997 205.398 156.216 205.576 155.299 205.576ZM154.008 203.93H155.237C156.081 203.93 156.721 203.701 157.153 203.242C157.596 202.784 157.82 202.055 157.82 201.055C157.82 200.055 157.596 199.326 157.153 198.867C156.721 198.409 156.081 198.18 155.237 198.18H154.008V203.93Z" fill="#F49F1C"/>
<path d="M176.504 205.576H174.462L177.587 196.555H180.045L183.149 205.576H181.108L180.441 203.513H177.191L176.504 205.576ZM177.67 202.034H179.962L178.858 198.617H178.774L177.67 202.034Z" fill="#F49F1C"/>
<path d="M197.257 196.555V205.576H195.611L191.674 199.888H191.611V205.576H189.715V196.555H191.382L195.278 202.221H195.361V196.555H197.257Z" fill="#F49F1C"/>
<path d="M205.852 205.576H203.81L206.935 196.555H209.394L212.498 205.576H210.456L209.79 203.513H206.54L205.852 205.576ZM207.019 202.034H209.31L208.206 198.617H208.123L207.019 202.034Z" fill="#F49F1C"/>
<path d="M219.064 205.576V196.555H220.96V203.992H224.835V205.576H219.064Z" fill="#F49F1C"/>
<path d="M231.038 196.555H233.183L235.246 200.43H235.329L237.392 196.555H239.517L236.225 202.388V205.576H234.329V202.388L231.038 196.555Z" fill="#F49F1C"/>
<path d="M250.938 199.138C250.896 198.794 250.74 198.523 250.48 198.326C250.214 198.117 249.855 198.013 249.396 198.013C248.922 198.013 248.563 198.112 248.313 198.305C248.063 198.503 247.938 198.742 247.938 199.034C247.938 199.357 248.073 199.596 248.355 199.763C248.646 199.93 248.985 200.055 249.375 200.138L250.188 200.346C250.698 200.461 251.157 200.628 251.563 200.846C251.98 201.07 252.303 201.362 252.542 201.721C252.776 202.07 252.896 202.492 252.896 202.992C252.881 203.826 252.568 204.487 251.959 204.971C251.344 205.461 250.485 205.701 249.375 205.701C248.276 205.701 247.401 205.451 246.75 204.951C246.094 204.451 245.761 203.716 245.75 202.742H247.584C247.625 203.201 247.803 203.544 248.125 203.763C248.443 203.987 248.855 204.096 249.355 204.096C249.839 204.096 250.23 204.003 250.521 203.805C250.813 203.596 250.959 203.326 250.959 202.992C250.959 202.69 250.823 202.451 250.563 202.284C250.297 202.117 249.917 201.982 249.417 201.867L248.438 201.617C247.672 201.44 247.068 201.154 246.625 200.763C246.193 200.362 245.98 199.826 245.98 199.159C245.98 198.607 246.125 198.128 246.417 197.721C246.709 197.305 247.11 196.987 247.625 196.763C248.151 196.544 248.74 196.43 249.396 196.43C250.073 196.43 250.667 196.549 251.167 196.784C251.667 197.008 252.053 197.32 252.334 197.721C252.61 198.128 252.756 198.596 252.771 199.138H250.938Z" fill="#F49F1C"/>
<path d="M261.537 196.555V205.576H259.641V196.555H261.537Z" fill="#F49F1C"/>
<path d="M273.493 199.138C273.451 198.794 273.295 198.523 273.034 198.326C272.769 198.117 272.409 198.013 271.951 198.013C271.477 198.013 271.118 198.112 270.868 198.305C270.618 198.503 270.493 198.742 270.493 199.034C270.493 199.357 270.628 199.596 270.909 199.763C271.201 199.93 271.54 200.055 271.93 200.138L272.743 200.346C273.253 200.461 273.712 200.628 274.118 200.846C274.534 201.07 274.857 201.362 275.097 201.721C275.331 202.07 275.451 202.492 275.451 202.992C275.436 203.826 275.123 204.487 274.514 204.971C273.899 205.461 273.04 205.701 271.93 205.701C270.831 205.701 269.956 205.451 269.305 204.951C268.649 204.451 268.316 203.716 268.305 202.742H270.139C270.18 203.201 270.357 203.544 270.68 203.763C270.998 203.987 271.409 204.096 271.909 204.096C272.394 204.096 272.784 204.003 273.076 203.805C273.368 203.596 273.514 203.326 273.514 202.992C273.514 202.69 273.378 202.451 273.118 202.284C272.852 202.117 272.472 201.982 271.972 201.867L270.993 201.617C270.227 201.44 269.623 201.154 269.18 200.763C268.748 200.362 268.534 199.826 268.534 199.159C268.534 198.607 268.68 198.128 268.972 197.721C269.264 197.305 269.665 196.987 270.18 196.763C270.706 196.544 271.295 196.43 271.951 196.43C272.628 196.43 273.222 196.549 273.722 196.784C274.222 197.008 274.607 197.32 274.889 197.721C275.165 198.128 275.311 198.596 275.326 199.138H273.493Z" fill="#F49F1C"/>
</svg>
