<svg width="395" height="72" viewBox="0 0 395 72" fill="none" xmlns="http://www.w3.org/2000/svg">
<rect x="0.5" y="0.5" width="394" height="71" rx="29.5" fill="#FF6F6F" fill-opacity="0.26" stroke="#EA6363"/>
<path d="M34.75 57V45.3636H39.7955C40.6818 45.3636 41.4261 45.483 42.0284 45.7216C42.6345 45.9602 43.0909 46.2973 43.3977 46.733C43.7083 47.1686 43.8636 47.6818 43.8636 48.2727C43.8636 48.7008 43.7689 49.0909 43.5795 49.4432C43.3939 49.7955 43.1326 50.0909 42.7955 50.3295C42.4583 50.5644 42.0644 50.7273 41.6136 50.8182V50.9318C42.1136 50.9508 42.5682 51.0777 42.9773 51.3125C43.3864 51.5436 43.7121 51.8636 43.9545 52.2727C44.197 52.678 44.3182 53.1553 44.3182 53.7045C44.3182 54.3409 44.1515 54.9072 43.8182 55.4034C43.4886 55.8996 43.0189 56.2898 42.4091 56.5739C41.7992 56.858 41.072 57 40.2273 57H34.75ZM37.9091 54.4773H39.3864C39.9167 54.4773 40.3144 54.3788 40.5795 54.1818C40.8447 53.9811 40.9773 53.6856 40.9773 53.2955C40.9773 53.0227 40.9148 52.7917 40.7898 52.6023C40.6648 52.4129 40.4867 52.2689 40.2557 52.1705C40.0284 52.072 39.7538 52.0227 39.4318 52.0227H37.9091V54.4773ZM37.9091 50.0682H39.2045C39.4811 50.0682 39.7254 50.0246 39.9375 49.9375C40.1496 49.8504 40.3144 49.7254 40.4318 49.5625C40.553 49.3958 40.6136 49.1932 40.6136 48.9545C40.6136 48.5947 40.4848 48.3201 40.2273 48.1307C39.9697 47.9375 39.6439 47.8409 39.25 47.8409H37.9091V50.0682ZM45.4375 45.3636H49.3693L52.0739 51.9545H52.2102L54.9148 45.3636H58.8466V57H55.7557V50.2727H55.6648L53.0739 56.9091H51.2102L48.6193 50.2273H48.5284V57H45.4375V45.3636ZM64.1392 57.1818C63.3059 57.1818 62.5881 57.0341 61.9858 56.7386C61.3835 56.4432 60.9214 56.0473 60.5994 55.5511C60.2775 55.0549 60.1165 54.5076 60.1165 53.9091C60.1165 53.4735 60.1998 53.089 60.3665 52.7557C60.5331 52.4186 60.7661 52.1098 61.0653 51.8295C61.3646 51.5492 61.715 51.2727 62.1165 51L64.7528 49.3636C65.018 49.197 65.1979 49.0246 65.2926 48.8466C65.3873 48.6648 65.4347 48.5038 65.4347 48.3636C65.4347 48.178 65.3665 48.0133 65.2301 47.8693C65.0938 47.7254 64.8816 47.6553 64.5938 47.6591C64.4157 47.6591 64.2623 47.6932 64.1335 47.7614C64.0047 47.8258 63.9044 47.9167 63.8324 48.0341C63.7642 48.1515 63.7301 48.2917 63.7301 48.4545C63.7301 48.678 63.7945 48.9072 63.9233 49.142C64.0521 49.3731 64.2282 49.6231 64.4517 49.892C64.6752 50.161 64.9271 50.4621 65.2074 50.7955L70.8438 57H67.7074L62.9801 52C62.7491 51.7538 62.4934 51.4527 62.2131 51.0966C61.9328 50.7367 61.6903 50.3314 61.4858 49.8807C61.285 49.4299 61.1847 48.9394 61.1847 48.4091C61.1847 47.8182 61.3267 47.2784 61.6108 46.7898C61.8949 46.3011 62.2926 45.911 62.804 45.6193C63.3153 45.3277 63.9119 45.1818 64.5938 45.1818C65.2453 45.1818 65.8059 45.3163 66.2756 45.5852C66.7491 45.8542 67.1127 46.2121 67.3665 46.6591C67.6241 47.1061 67.7528 47.5985 67.7528 48.1364C67.7528 48.678 67.6184 49.1837 67.3494 49.6534C67.0843 50.1231 66.7036 50.5341 66.2074 50.8864L63.7983 52.5909C63.6127 52.7197 63.4517 52.8674 63.3153 53.0341C63.1828 53.2008 63.1165 53.4167 63.1165 53.6818C63.1165 53.9015 63.1676 54.089 63.2699 54.2443C63.3722 54.3996 63.5161 54.5189 63.7017 54.6023C63.8911 54.6856 64.1127 54.7273 64.3665 54.7273C64.7528 54.7273 65.1392 54.6345 65.5256 54.4489C65.9157 54.2595 66.2718 53.9962 66.5938 53.6591C66.9157 53.3182 67.1733 52.9167 67.3665 52.4545C67.5634 51.9886 67.6619 51.4811 67.6619 50.9318H70.1392C70.1392 51.6061 70.0691 52.2557 69.929 52.8807C69.7888 53.5057 69.5634 54.0777 69.2528 54.5966C68.9422 55.1155 68.5331 55.553 68.0256 55.9091C67.8665 55.9886 67.7112 56.0644 67.5597 56.1364C67.4081 56.2083 67.2528 56.2841 67.0938 56.3636C66.6278 56.6629 66.1411 56.875 65.6335 57C65.1259 57.1212 64.6278 57.1818 64.1392 57.1818ZM71.5 57V45.3636H79.6818V47.9091H74.6591V49.9091H79.1818V52.4545H74.6591V57H71.5ZM80.8438 57V45.3636H85.8892C86.7756 45.3636 87.5199 45.483 88.1222 45.7216C88.7282 45.9602 89.1847 46.2973 89.4915 46.733C89.8021 47.1686 89.9574 47.6818 89.9574 48.2727C89.9574 48.7008 89.8627 49.0909 89.6733 49.4432C89.4877 49.7955 89.2263 50.0909 88.8892 50.3295C88.5521 50.5644 88.1581 50.7273 87.7074 50.8182V50.9318C88.2074 50.9508 88.6619 51.0777 89.071 51.3125C89.4801 51.5436 89.8059 51.8636 90.0483 52.2727C90.2907 52.678 90.4119 53.1553 90.4119 53.7045C90.4119 54.3409 90.2453 54.9072 89.9119 55.4034C89.5824 55.8996 89.1127 56.2898 88.5028 56.5739C87.893 56.858 87.1657 57 86.321 57H80.8438ZM84.0028 54.4773H85.4801C86.0104 54.4773 86.4081 54.3788 86.6733 54.1818C86.9384 53.9811 87.071 53.6856 87.071 53.2955C87.071 53.0227 87.0085 52.7917 86.8835 52.6023C86.7585 52.4129 86.5805 52.2689 86.3494 52.1705C86.1222 52.072 85.8475 52.0227 85.5256 52.0227H84.0028V54.4773ZM84.0028 50.0682H85.2983C85.5748 50.0682 85.8191 50.0246 86.0312 49.9375C86.2434 49.8504 86.4081 49.7254 86.5256 49.5625C86.6468 49.3958 86.7074 49.1932 86.7074 48.9545C86.7074 48.5947 86.5786 48.3201 86.321 48.1307C86.0634 47.9375 85.7377 47.8409 85.3438 47.8409H84.0028V50.0682ZM95.7812 57.1591C94.8343 57.1591 94.0237 56.9716 93.3494 56.5966C92.6752 56.2178 92.1581 55.6913 91.7983 55.017C91.4384 54.339 91.2585 53.553 91.2585 52.6591C91.2585 51.7652 91.4384 50.9811 91.7983 50.3068C92.1581 49.6288 92.6752 49.1023 93.3494 48.7273C94.0237 48.3485 94.8343 48.1591 95.7812 48.1591C96.7282 48.1591 97.5388 48.3485 98.2131 48.7273C98.8873 49.1023 99.4044 49.6288 99.7642 50.3068C100.124 50.9811 100.304 51.7652 100.304 52.6591C100.304 53.553 100.124 54.339 99.7642 55.017C99.4044 55.6913 98.8873 56.2178 98.2131 56.5966C97.5388 56.9716 96.7282 57.1591 95.7812 57.1591ZM95.804 54.8409C96.0691 54.8409 96.2983 54.7519 96.4915 54.5739C96.6847 54.3958 96.8343 54.142 96.9403 53.8125C97.0464 53.483 97.0994 53.0909 97.0994 52.6364C97.0994 52.178 97.0464 51.786 96.9403 51.4602C96.8343 51.1307 96.6847 50.8769 96.4915 50.6989C96.2983 50.5208 96.0691 50.4318 95.804 50.4318C95.5237 50.4318 95.2831 50.5208 95.0824 50.6989C94.8816 50.8769 94.7282 51.1307 94.6222 51.4602C94.5161 51.786 94.4631 52.178 94.4631 52.6364C94.4631 53.0909 94.5161 53.483 94.6222 53.8125C94.7282 54.142 94.8816 54.3958 95.0824 54.5739C95.2831 54.7519 95.5237 54.8409 95.804 54.8409ZM110.107 48.2727L107.175 57H103.538L100.607 48.2727H103.902L105.311 54.0455H105.402L106.811 48.2727H110.107ZM114.915 57.1591C113.983 57.1591 113.18 56.9811 112.506 56.625C111.835 56.2652 111.318 55.75 110.955 55.0795C110.595 54.4053 110.415 53.5985 110.415 52.6591C110.415 51.7576 110.597 50.9697 110.96 50.2955C111.324 49.6212 111.837 49.0966 112.5 48.7216C113.163 48.3466 113.945 48.1591 114.847 48.1591C115.506 48.1591 116.102 48.2614 116.636 48.4659C117.17 48.6705 117.627 48.9678 118.006 49.358C118.384 49.7443 118.676 50.214 118.881 50.767C119.085 51.3201 119.188 51.9432 119.188 52.6364V53.3636H111.392V51.6364H116.301C116.297 51.3864 116.233 51.1667 116.108 50.9773C115.987 50.7841 115.822 50.6345 115.614 50.5284C115.409 50.4186 115.176 50.3636 114.915 50.3636C114.661 50.3636 114.428 50.4186 114.216 50.5284C114.004 50.6345 113.833 50.7822 113.705 50.9716C113.58 51.161 113.513 51.3826 113.506 51.6364V53.5C113.506 53.7803 113.564 54.0303 113.682 54.25C113.799 54.4697 113.968 54.642 114.188 54.767C114.407 54.892 114.672 54.9545 114.983 54.9545C115.199 54.9545 115.396 54.9242 115.574 54.8636C115.756 54.803 115.911 54.7159 116.04 54.6023C116.169 54.4848 116.263 54.3447 116.324 54.1818H119.188C119.089 54.7879 118.856 55.3144 118.489 55.7614C118.121 56.2045 117.634 56.5492 117.028 56.7955C116.426 57.0379 115.722 57.1591 114.915 57.1591ZM128.445 51.1136H125.558C125.543 50.9356 125.481 50.7822 125.371 50.6534C125.261 50.5246 125.119 50.4261 124.945 50.358C124.774 50.286 124.585 50.25 124.376 50.25C124.107 50.25 123.876 50.2992 123.683 50.3977C123.49 50.4962 123.395 50.6364 123.399 50.8182C123.395 50.947 123.45 51.0663 123.564 51.1761C123.681 51.286 123.907 51.3712 124.24 51.4318L126.013 51.75C126.907 51.9129 127.571 52.1875 128.007 52.5739C128.446 52.9564 128.668 53.4697 128.672 54.1136C128.668 54.7348 128.482 55.2746 128.115 55.733C127.751 56.1875 127.253 56.5398 126.621 56.7898C125.992 57.036 125.274 57.1591 124.467 57.1591C123.134 57.1591 122.09 56.8864 121.337 56.3409C120.587 55.7955 120.168 55.0758 120.081 54.1818H123.195C123.236 54.4583 123.373 54.6723 123.604 54.8239C123.839 54.9716 124.134 55.0455 124.49 55.0455C124.778 55.0455 125.015 54.9962 125.2 54.8977C125.39 54.7992 125.486 54.6591 125.49 54.4773C125.486 54.3106 125.403 54.178 125.24 54.0795C125.081 53.9811 124.831 53.9015 124.49 53.8409L122.945 53.5682C122.054 53.4129 121.388 53.1174 120.945 52.6818C120.501 52.2462 120.282 51.6856 120.286 51C120.282 50.3939 120.441 49.8807 120.763 49.4602C121.089 49.036 121.553 48.714 122.155 48.4943C122.761 48.2708 123.479 48.1591 124.308 48.1591C125.57 48.1591 126.564 48.4205 127.291 48.9432C128.022 49.4659 128.407 50.1894 128.445 51.1136ZM129.874 60.2727V48.2727H132.987V49.7955H133.055C133.169 49.5 133.336 49.2292 133.555 48.983C133.775 48.733 134.048 48.5341 134.374 48.3864C134.699 48.2348 135.078 48.1591 135.51 48.1591C136.086 48.1591 136.633 48.3125 137.152 48.6193C137.675 48.9261 138.099 49.4091 138.425 50.0682C138.754 50.7273 138.919 51.5833 138.919 52.6364C138.919 53.6439 138.762 54.4792 138.447 55.142C138.137 55.8049 137.72 56.2992 137.197 56.625C136.679 56.9508 136.108 57.1136 135.487 57.1136C135.078 57.1136 134.713 57.0473 134.391 56.9148C134.072 56.7784 133.8 56.5947 133.572 56.3636C133.349 56.1288 133.177 55.8636 133.055 55.5682H133.01V60.2727H129.874ZM132.942 52.6364C132.942 53.0606 132.997 53.428 133.107 53.7386C133.22 54.0455 133.379 54.2841 133.584 54.4545C133.792 54.6212 134.04 54.7045 134.328 54.7045C134.616 54.7045 134.86 54.6231 135.061 54.4602C135.266 54.2936 135.421 54.0568 135.527 53.75C135.637 53.4394 135.692 53.0682 135.692 52.6364C135.692 52.2045 135.637 51.8352 135.527 51.5284C135.421 51.2178 135.266 50.9811 135.061 50.8182C134.86 50.6515 134.616 50.5682 134.328 50.5682C134.04 50.5682 133.792 50.6515 133.584 50.8182C133.379 50.9811 133.22 51.2178 133.107 51.5284C132.997 51.8352 132.942 52.2045 132.942 52.6364ZM142.665 57.1364C142.108 57.1364 141.616 57.0455 141.188 56.8636C140.763 56.678 140.43 56.3977 140.188 56.0227C139.945 55.6477 139.824 55.1705 139.824 54.5909C139.824 54.1136 139.905 53.7064 140.068 53.3693C140.231 53.0284 140.458 52.75 140.75 52.5341C141.042 52.3182 141.381 52.1534 141.767 52.0398C142.157 51.9261 142.578 51.8523 143.028 51.8182C143.517 51.7803 143.909 51.7348 144.205 51.6818C144.504 51.625 144.72 51.5473 144.852 51.4489C144.985 51.3466 145.051 51.2121 145.051 51.0455V51.0227C145.051 50.7955 144.964 50.6212 144.79 50.5C144.616 50.3788 144.392 50.3182 144.119 50.3182C143.82 50.3182 143.576 50.3845 143.386 50.517C143.201 50.6458 143.089 50.8447 143.051 51.1136H140.165C140.203 50.5833 140.371 50.0947 140.67 49.6477C140.973 49.197 141.415 48.8371 141.994 48.5682C142.574 48.2955 143.297 48.1591 144.165 48.1591C144.79 48.1591 145.35 48.233 145.847 48.3807C146.343 48.5246 146.765 48.7273 147.114 48.9886C147.462 49.2462 147.727 49.5492 147.909 49.8977C148.095 50.2424 148.188 50.6174 148.188 51.0227V57H145.256V55.7727H145.188C145.013 56.0985 144.801 56.3617 144.551 56.5625C144.305 56.7633 144.023 56.9091 143.705 57C143.39 57.0909 143.044 57.1364 142.665 57.1364ZM143.688 55.1591C143.926 55.1591 144.15 55.1098 144.358 55.0114C144.57 54.9129 144.742 54.7708 144.875 54.5852C145.008 54.3996 145.074 54.1742 145.074 53.9091V53.1818C144.991 53.2159 144.902 53.2481 144.807 53.2784C144.716 53.3087 144.617 53.3371 144.511 53.3636C144.409 53.3902 144.299 53.4148 144.182 53.4375C144.068 53.4602 143.949 53.4811 143.824 53.5C143.581 53.5379 143.383 53.6004 143.227 53.6875C143.076 53.7708 142.962 53.875 142.886 54C142.814 54.1212 142.778 54.2576 142.778 54.4091C142.778 54.6515 142.864 54.8371 143.034 54.9659C143.205 55.0947 143.422 55.1591 143.688 55.1591Z" fill="#AE4943"/>
<path d="M35.8182 17.3636V29H33.1818L28.9773 22.8864H28.9091V29H25.75V17.3636H28.4318L32.5682 23.4545H32.6591V17.3636H35.8182ZM40.4716 17.3636V29H37.3125V17.3636H40.4716ZM41.9688 29V17.3636H45.1278V22.0682H45.2869L48.7869 17.3636H52.4688L48.5369 22.5455L52.5597 29H48.7869L46.1733 24.6364L45.1278 26V29H41.9688ZM63.9446 23.1818C63.9446 24.4773 63.6927 25.5701 63.1889 26.4602C62.6851 27.3466 62.0052 28.0189 61.1491 28.4773C60.2931 28.9318 59.3385 29.1591 58.2855 29.1591C57.2249 29.1591 56.2666 28.9299 55.4105 28.4716C54.5582 28.0095 53.8802 27.3352 53.3764 26.4489C52.8764 25.5587 52.6264 24.4697 52.6264 23.1818C52.6264 21.8864 52.8764 20.7955 53.3764 19.9091C53.8802 19.0189 54.5582 18.3466 55.4105 17.892C56.2666 17.4337 57.2249 17.2045 58.2855 17.2045C59.3385 17.2045 60.2931 17.4337 61.1491 17.892C62.0052 18.3466 62.6851 19.0189 63.1889 19.9091C63.6927 20.7955 63.9446 21.8864 63.9446 23.1818ZM60.6946 23.1818C60.6946 22.4848 60.6018 21.8977 60.4162 21.4205C60.2344 20.9394 59.9635 20.5758 59.6037 20.3295C59.2476 20.0795 58.8082 19.9545 58.2855 19.9545C57.7628 19.9545 57.3215 20.0795 56.9616 20.3295C56.6056 20.5758 56.3348 20.9394 56.1491 21.4205C55.9673 21.8977 55.8764 22.4848 55.8764 23.1818C55.8764 23.8788 55.9673 24.4678 56.1491 24.9489C56.3348 25.4261 56.6056 25.7898 56.9616 26.0398C57.3215 26.286 57.7628 26.4091 58.2855 26.4091C58.8082 26.4091 59.2476 26.286 59.6037 26.0398C59.9635 25.7898 60.2344 25.4261 60.4162 24.9489C60.6018 24.4678 60.6946 23.8788 60.6946 23.1818ZM70.5156 16.8182L66.7656 30.75H64.1065L67.8565 16.8182H70.5156ZM85.8196 23.1818C85.8196 24.4773 85.5677 25.5701 85.0639 26.4602C84.5601 27.3466 83.8802 28.0189 83.0241 28.4773C82.1681 28.9318 81.2135 29.1591 80.1605 29.1591C79.0999 29.1591 78.1416 28.9299 77.2855 28.4716C76.4332 28.0095 75.7552 27.3352 75.2514 26.4489C74.7514 25.5587 74.5014 24.4697 74.5014 23.1818C74.5014 21.8864 74.7514 20.7955 75.2514 19.9091C75.7552 19.0189 76.4332 18.3466 77.2855 17.892C78.1416 17.4337 79.0999 17.2045 80.1605 17.2045C81.2135 17.2045 82.1681 17.4337 83.0241 17.892C83.8802 18.3466 84.5601 19.0189 85.0639 19.9091C85.5677 20.7955 85.8196 21.8864 85.8196 23.1818ZM82.5696 23.1818C82.5696 22.4848 82.4768 21.8977 82.2912 21.4205C82.1094 20.9394 81.8385 20.5758 81.4787 20.3295C81.1226 20.0795 80.6832 19.9545 80.1605 19.9545C79.6378 19.9545 79.1965 20.0795 78.8366 20.3295C78.4806 20.5758 78.2098 20.9394 78.0241 21.4205C77.8423 21.8977 77.7514 22.4848 77.7514 23.1818C77.7514 23.8788 77.8423 24.4678 78.0241 24.9489C78.2098 25.4261 78.4806 25.7898 78.8366 26.0398C79.1965 26.286 79.6378 26.4091 80.1605 26.4091C80.6832 26.4091 81.1226 26.286 81.4787 26.0398C81.8385 25.7898 82.1094 25.4261 82.2912 24.9489C82.4768 24.4678 82.5696 23.8788 82.5696 23.1818ZM97.3494 17.3636V29H94.7131L90.5085 22.8864H90.4403V29H87.2812V17.3636H89.9631L94.0994 23.4545H94.1903V17.3636H97.3494Z" fill="black"/>
<path d="M342.773 29V26.7273L347.114 23.1364C347.402 22.8977 347.648 22.6742 347.852 22.4659C348.061 22.2538 348.22 22.036 348.33 21.8125C348.443 21.589 348.5 21.3409 348.5 21.0682C348.5 20.7689 348.436 20.5133 348.307 20.3011C348.182 20.089 348.008 19.9261 347.784 19.8125C347.561 19.6951 347.303 19.6364 347.011 19.6364C346.72 19.6364 346.462 19.6951 346.239 19.8125C346.019 19.9299 345.848 20.1023 345.727 20.3295C345.606 20.5568 345.545 20.8333 345.545 21.1591H342.545C342.545 20.3409 342.729 19.6364 343.097 19.0455C343.464 18.4545 343.983 18 344.653 17.6818C345.324 17.3636 346.11 17.2045 347.011 17.2045C347.943 17.2045 348.75 17.3542 349.432 17.6534C350.117 17.9489 350.646 18.3655 351.017 18.9034C351.392 19.4413 351.58 20.072 351.58 20.7955C351.58 21.2424 351.487 21.6875 351.301 22.1307C351.116 22.5701 350.782 23.0568 350.301 23.5909C349.82 24.125 349.136 24.7614 348.25 25.5L347.159 26.4091V26.4773H351.705V29H342.773ZM353.639 29L358.207 19.9545V19.8864H352.844V17.3636H361.48V19.8864L356.889 29H353.639ZM363.95 27.4091L363.905 28.0455C363.867 28.5909 363.776 29.1136 363.632 29.6136C363.492 30.1136 363.342 30.5568 363.183 30.9432C363.028 31.3295 362.905 31.6288 362.814 31.8409H360.882C360.943 31.6288 361.028 31.322 361.138 30.9205C361.251 30.5227 361.354 30.072 361.445 29.5682C361.539 29.0682 361.587 28.5606 361.587 28.0455V27.4091H363.95ZM365.92 29L370.489 19.9545V19.8864H365.125V17.3636H373.761V19.8864L369.17 29H365.92ZM379.982 29.3182C378.925 29.3144 378.012 29.0701 377.243 28.5852C376.474 28.1004 375.881 27.4015 375.464 26.4886C375.048 25.5758 374.841 24.4811 374.845 23.2045C374.849 21.9242 375.057 20.8371 375.47 19.9432C375.887 19.0492 376.478 18.3693 377.243 17.9034C378.012 17.4375 378.925 17.2045 379.982 17.2045C381.038 17.2045 381.951 17.4394 382.72 17.9091C383.489 18.375 384.082 19.0549 384.499 19.9489C384.915 20.8428 385.122 21.928 385.118 23.2045C385.118 24.4886 384.91 25.5871 384.493 26.5C384.076 27.4129 383.483 28.1117 382.714 28.5966C381.949 29.0777 381.038 29.3182 379.982 29.3182ZM379.982 26.75C380.527 26.75 380.974 26.4659 381.322 25.8977C381.675 25.3258 381.849 24.428 381.845 23.2045C381.845 22.4053 381.766 21.7519 381.607 21.2443C381.447 20.7367 381.228 20.3617 380.947 20.1193C380.667 19.8731 380.345 19.75 379.982 19.75C379.436 19.75 378.991 20.0265 378.646 20.5795C378.302 21.1326 378.125 22.0076 378.118 23.2045C378.114 24.0189 378.192 24.6894 378.351 25.2159C378.51 25.7386 378.73 26.125 379.01 26.375C379.294 26.625 379.618 26.75 379.982 26.75Z" fill="black"/>
<path d="M257.523 50V52.3636H252.068V50H257.523ZM264.435 57.3182C263.378 57.3144 262.465 57.0701 261.696 56.5852C260.927 56.1004 260.334 55.4015 259.918 54.4886C259.501 53.5758 259.295 52.4811 259.298 51.2045C259.302 49.9242 259.51 48.8371 259.923 47.9432C260.34 47.0492 260.931 46.3693 261.696 45.9034C262.465 45.4375 263.378 45.2045 264.435 45.2045C265.491 45.2045 266.404 45.4394 267.173 45.9091C267.942 46.375 268.535 47.0549 268.952 47.9489C269.368 48.8428 269.575 49.928 269.571 51.2045C269.571 52.4886 269.363 53.5871 268.946 54.5C268.529 55.4129 267.937 56.1117 267.168 56.5966C266.402 57.0777 265.491 57.3182 264.435 57.3182ZM264.435 54.75C264.98 54.75 265.427 54.4659 265.776 53.8977C266.128 53.3258 266.302 52.428 266.298 51.2045C266.298 50.4053 266.219 49.7519 266.06 49.2443C265.901 48.7367 265.681 48.3617 265.401 48.1193C265.12 47.8731 264.798 47.75 264.435 47.75C263.889 47.75 263.444 48.0265 263.099 48.5795C262.755 49.1326 262.579 50.0076 262.571 51.2045C262.567 52.0189 262.645 52.6894 262.804 53.2159C262.963 53.7386 263.183 54.125 263.463 54.375C263.747 54.625 264.071 54.75 264.435 54.75ZM273.607 55.4091L273.561 56.0455C273.523 56.5909 273.432 57.1136 273.288 57.6136C273.148 58.1136 272.999 58.5568 272.839 58.9432C272.684 59.3295 272.561 59.6288 272.47 59.8409H270.538C270.599 59.6288 270.684 59.322 270.794 58.9205C270.908 58.5227 271.01 58.072 271.101 57.5682C271.196 57.0682 271.243 56.5606 271.243 56.0455V55.4091H273.607ZM275.632 57V54.7273L279.973 51.1364C280.261 50.8977 280.507 50.6742 280.712 50.4659C280.92 50.2538 281.079 50.036 281.189 49.8125C281.303 49.589 281.359 49.3409 281.359 49.0682C281.359 48.7689 281.295 48.5133 281.166 48.3011C281.041 48.089 280.867 47.9261 280.643 47.8125C280.42 47.6951 280.162 47.6364 279.871 47.6364C279.579 47.6364 279.321 47.6951 279.098 47.8125C278.878 47.9299 278.708 48.1023 278.587 48.3295C278.465 48.5568 278.405 48.8333 278.405 49.1591H275.405C275.405 48.3409 275.589 47.6364 275.956 47.0455C276.323 46.4545 276.842 46 277.513 45.6818C278.183 45.3636 278.969 45.2045 279.871 45.2045C280.803 45.2045 281.609 45.3542 282.291 45.6534C282.977 45.9489 283.505 46.3655 283.876 46.9034C284.251 47.4413 284.439 48.072 284.439 48.7955C284.439 49.2424 284.346 49.6875 284.161 50.1307C283.975 50.5701 283.642 51.0568 283.161 51.5909C282.679 52.125 281.996 52.7614 281.109 53.5L280.018 54.4091V54.4773H284.564V57H275.632ZM290.635 57.1591C289.741 57.1591 288.947 57.0019 288.254 56.6875C287.565 56.3693 287.021 55.9318 286.624 55.375C286.23 54.8182 286.029 54.178 286.021 53.4545H289.089C289.101 53.8561 289.256 54.1761 289.555 54.4148C289.858 54.6534 290.218 54.7727 290.635 54.7727C290.957 54.7727 291.241 54.7045 291.487 54.5682C291.733 54.428 291.927 54.2311 292.067 53.9773C292.207 53.7235 292.275 53.428 292.271 53.0909C292.275 52.75 292.207 52.4545 292.067 52.2045C291.927 51.9508 291.733 51.7557 291.487 51.6193C291.241 51.4792 290.957 51.4091 290.635 51.4091C290.302 51.4091 289.993 51.4905 289.709 51.6534C289.429 51.8125 289.222 52.0341 289.089 52.3182L286.317 51.7727L286.771 45.3636H294.589V47.8864H289.362L289.135 50.4545H289.203C289.385 50.1023 289.699 49.8106 290.146 49.5795C290.593 49.3447 291.112 49.2273 291.703 49.2273C292.396 49.2273 293.014 49.3883 293.555 49.7102C294.101 50.0322 294.531 50.4773 294.845 51.0455C295.163 51.6098 295.321 52.2614 295.317 53C295.321 53.8106 295.127 54.5303 294.737 55.1591C294.351 55.7841 293.807 56.2746 293.107 56.6307C292.406 56.983 291.582 57.1591 290.635 57.1591ZM300.457 51.1818C300.457 49.7841 300.647 48.4981 301.026 47.3239C301.408 46.1496 302.014 45.0568 302.844 44.0455H305.912C305.601 44.4205 305.312 44.8769 305.043 45.4148C304.777 45.9489 304.546 46.5341 304.349 47.1705C304.156 47.8068 304.005 48.4678 303.895 49.1534C303.785 49.8352 303.73 50.5114 303.73 51.1818C303.73 52.0758 303.825 52.9773 304.014 53.8864C304.204 54.7917 304.463 55.6326 304.793 56.4091C305.122 57.1818 305.495 57.8182 305.912 58.3182H302.844C302.014 57.3068 301.408 56.214 301.026 55.0398C300.647 53.8655 300.457 52.5795 300.457 51.1818ZM312.663 50V52.3636H307.209V50H312.663ZM319.575 57.3182C318.518 57.3144 317.606 57.0701 316.837 56.5852C316.068 56.1004 315.475 55.4015 315.058 54.4886C314.642 53.5758 314.435 52.4811 314.439 51.2045C314.443 49.9242 314.651 48.8371 315.064 47.9432C315.481 47.0492 316.071 46.3693 316.837 45.9034C317.606 45.4375 318.518 45.2045 319.575 45.2045C320.632 45.2045 321.545 45.4394 322.314 45.9091C323.083 46.375 323.676 47.0549 324.092 47.9489C324.509 48.8428 324.715 49.928 324.712 51.2045C324.712 52.4886 324.503 53.5871 324.087 54.5C323.67 55.4129 323.077 56.1117 322.308 56.5966C321.543 57.0777 320.632 57.3182 319.575 57.3182ZM319.575 54.75C320.121 54.75 320.568 54.4659 320.916 53.8977C321.268 53.3258 321.443 52.428 321.439 51.2045C321.439 50.4053 321.359 49.7519 321.2 49.2443C321.041 48.7367 320.821 48.3617 320.541 48.1193C320.261 47.8731 319.939 47.75 319.575 47.75C319.03 47.75 318.585 48.0265 318.24 48.5795C317.895 49.1326 317.719 50.0076 317.712 51.2045C317.708 52.0189 317.786 52.6894 317.945 53.2159C318.104 53.7386 318.323 54.125 318.604 54.375C318.888 54.625 319.212 54.75 319.575 54.75ZM328.747 55.4091L328.702 56.0455C328.664 56.5909 328.573 57.1136 328.429 57.6136C328.289 58.1136 328.139 58.5568 327.98 58.9432C327.825 59.3295 327.702 59.6288 327.611 59.8409H325.679C325.74 59.6288 325.825 59.322 325.935 58.9205C326.048 58.5227 326.151 58.072 326.241 57.5682C326.336 57.0682 326.384 56.5606 326.384 56.0455V55.4091H328.747ZM335.037 45.2045C335.715 45.2045 336.357 45.3125 336.963 45.5284C337.569 45.7405 338.105 46.0758 338.571 46.5341C339.041 46.9924 339.408 47.5909 339.673 48.3295C339.942 49.0644 340.079 49.9545 340.082 51C340.086 51.9545 339.967 52.8125 339.724 53.5739C339.486 54.3314 339.143 54.9773 338.696 55.5114C338.253 56.0455 337.719 56.4545 337.094 56.7386C336.473 57.0189 335.779 57.1591 335.014 57.1591C334.154 57.1591 333.399 56.9943 332.747 56.6648C332.096 56.3352 331.577 55.892 331.19 55.3352C330.804 54.7784 330.579 54.1591 330.514 53.4773H333.628C333.704 53.8295 333.87 54.0852 334.128 54.2443C334.385 54.3996 334.681 54.4773 335.014 54.4773C335.681 54.4773 336.168 54.1894 336.474 53.6136C336.785 53.0341 336.942 52.2614 336.946 51.2955H336.878C336.73 51.6515 336.507 51.9564 336.207 52.2102C335.908 52.464 335.56 52.6591 335.162 52.7955C334.764 52.9318 334.344 53 333.901 53C333.2 53 332.586 52.8428 332.06 52.5284C331.533 52.2102 331.122 51.7765 330.827 51.2273C330.531 50.6742 330.382 50.0455 330.378 49.3409C330.374 48.5152 330.569 47.7917 330.963 47.1705C331.357 46.5492 331.904 46.0663 332.605 45.7216C333.306 45.3769 334.116 45.2045 335.037 45.2045ZM335.06 47.5909C334.745 47.5909 334.465 47.6629 334.219 47.8068C333.976 47.9508 333.785 48.1458 333.645 48.392C333.509 48.6383 333.442 48.9167 333.446 49.2273C333.45 49.5379 333.52 49.8163 333.656 50.0625C333.796 50.3087 333.986 50.5038 334.224 50.6477C334.467 50.7917 334.745 50.8636 335.06 50.8636C335.291 50.8636 335.505 50.8239 335.702 50.7443C335.899 50.661 336.069 50.5455 336.213 50.3977C336.361 50.2462 336.474 50.072 336.554 49.875C336.637 49.6742 336.677 49.4583 336.673 49.2273C336.67 48.9167 336.598 48.6383 336.457 48.392C336.317 48.1458 336.126 47.9508 335.884 47.8068C335.641 47.6629 335.366 47.5909 335.06 47.5909ZM347.149 45.3636V57H343.99V48.2727H343.922L341.376 49.7955V47.1136L344.24 45.3636H347.149ZM356.197 54.8182V54.2045C356.197 53.7121 356.304 53.2576 356.516 52.8409C356.732 52.4242 357.044 52.089 357.453 51.8352C357.862 51.5814 358.36 51.4545 358.947 51.4545C359.55 51.4545 360.055 51.5795 360.464 51.8295C360.877 52.0795 361.19 52.4129 361.402 52.8295C361.614 53.2462 361.72 53.7045 361.72 54.2045V54.8182C361.72 55.3106 361.612 55.7652 361.396 56.1818C361.184 56.5985 360.872 56.9337 360.459 57.1875C360.046 57.4413 359.542 57.5682 358.947 57.5682C358.353 57.5682 357.851 57.4413 357.442 57.1875C357.033 56.9337 356.722 56.5985 356.51 56.1818C356.302 55.7652 356.197 55.3106 356.197 54.8182ZM358.175 54.2045V54.8182C358.175 55.0341 358.228 55.2481 358.334 55.4602C358.444 55.6686 358.648 55.7727 358.947 55.7727C359.262 55.7727 359.468 55.6705 359.567 55.4659C359.669 55.2614 359.72 55.0455 359.72 54.8182V54.2045C359.72 53.9773 359.673 53.7576 359.578 53.5455C359.483 53.3333 359.273 53.2273 358.947 53.2273C358.648 53.2273 358.444 53.3333 358.334 53.5455C358.228 53.7576 358.175 53.9773 358.175 54.2045ZM350.107 48.1591V47.5455C350.107 47.0455 350.214 46.5871 350.43 46.1705C350.65 45.7538 350.964 45.4205 351.374 45.1705C351.783 44.9205 352.277 44.7955 352.857 44.7955C353.459 44.7955 353.964 44.9205 354.374 45.1705C354.786 45.4205 355.099 45.7538 355.311 46.1705C355.523 46.5871 355.629 47.0455 355.629 47.5455V48.1591C355.629 48.6591 355.521 49.1155 355.305 49.5284C355.093 49.9413 354.781 50.2708 354.368 50.517C353.955 50.7633 353.451 50.8864 352.857 50.8864C352.262 50.8864 351.76 50.7614 351.351 50.5114C350.942 50.2614 350.631 49.9299 350.419 49.517C350.211 49.1042 350.107 48.6515 350.107 48.1591ZM352.107 47.5455V48.1591C352.107 48.3864 352.16 48.6023 352.266 48.8068C352.372 49.0114 352.569 49.1136 352.857 49.1136C353.171 49.1136 353.377 49.0114 353.476 48.8068C353.578 48.6023 353.629 48.3864 353.629 48.1591V47.5455C353.629 47.3182 353.582 47.0985 353.487 46.8864C353.393 46.6742 353.182 46.5682 352.857 46.5682C352.557 46.5682 352.357 46.678 352.254 46.8977C352.156 47.1136 352.107 47.3295 352.107 47.5455ZM351.072 57L359.072 45.3636H360.686L352.686 57H351.072ZM368.697 51.1818C368.697 52.5795 368.506 53.8655 368.124 55.0398C367.745 56.214 367.141 57.3068 366.311 58.3182H363.243C363.557 57.9432 363.847 57.4886 364.112 56.9545C364.377 56.4167 364.607 55.8295 364.8 55.1932C364.997 54.5568 365.15 53.8977 365.26 53.2159C365.37 52.5303 365.425 51.8523 365.425 51.1818C365.425 50.2879 365.33 49.3883 365.141 48.483C364.951 47.5739 364.692 46.733 364.362 45.9602C364.033 45.1837 363.66 44.5455 363.243 44.0455H366.311C367.141 45.0568 367.745 46.1496 368.124 47.3239C368.506 48.4981 368.697 49.7841 368.697 51.1818Z" fill="#C24646"/>
</svg>
